#N canvas 438 70 929 813 10;
#X obj 28 237 inlet~;
#X obj 78 237 inlet~;
#X obj 195 85 inlet~;
#X obj 346 320 vd~ \$0-1-l;
#X obj 193 320 vd~ \$0-1-r;
#X obj 346 449 *~;
#X obj 193 449 *~;
#X obj 362 570 outlet~;
#X obj 446 240 vsl 15 128 0 127 0 0 empty empty empty 0 -9 0 10 #fcfcfc
#000000 #000000 0 1;
#X obj 359 236 inlet;
#X obj 216 575 outlet~;
#X obj 446 174 inlet;
#X obj 531 247 vsl 15 128 0 127 0 0 empty empty empty 0 -9 0 10 #fcfcfc
#000000 #000000 0 1;
#X obj 531 222 inlet;
#X obj 631 295 vsl 15 128 0 127 0 0 empty empty empty 0 -9 0 10 #fcfcfc
#000000 #000000 0 1;
#X obj 631 243 inlet;
#X obj 531 391 easeout 2;
#X obj 631 269 * 0.07;
#X obj 42 359 stereopan;
#X obj 193 640 lowpass;
#X obj 548 714 outlet;
#X obj 619 714 outlet;
#X obj 346 640 lowpass;
#X text 531 196 Filter freq;
#X text 631 217 Filter Q;
#X text 446 151 feedback;
#X text 201 506 delay lines are crossed;
#X text 538 736 output calculated filter values for display purposes
, f 29;
#X text 116 85 delay time;
#X obj 138 251 loadbang;
#X msg 122 282 0;
#X obj 446 209 clip 0 0.99;
#X obj 194 152 max~ 0;
#X obj 194 716 width;
#X obj 221 667 loadbang;
#X msg 221 688 0.01;
#X obj 57 487 lowpass;
#X obj 135 481 lowpass;
#X obj 193 750 delwrite~ \$0-1-l 500;
#X obj 346 749 delwrite~ \$0-1-r 500;
#X connect 0 0 18 0;
#X connect 1 0 18 1;
#X connect 2 0 32 0;
#X connect 3 0 5 0;
#X connect 3 0 7 0;
#X connect 4 0 6 0;
#X connect 4 0 10 0;
#X connect 5 0 22 0;
#X connect 6 0 19 0;
#X connect 8 0 6 1;
#X connect 8 0 5 1;
#X connect 9 0 18 2;
#X connect 11 0 31 0;
#X connect 12 0 16 0;
#X connect 13 0 12 0;
#X connect 14 0 22 2;
#X connect 14 0 19 2;
#X connect 14 0 37 2;
#X connect 14 0 36 2;
#X connect 15 0 17 0;
#X connect 16 0 22 1;
#X connect 16 0 19 1;
#X connect 16 0 36 1;
#X connect 16 0 37 1;
#X connect 17 0 14 0;
#X connect 18 0 19 0;
#X connect 18 0 36 0;
#X connect 18 1 22 0;
#X connect 18 1 37 0;
#X connect 19 0 33 0;
#X connect 22 0 33 1;
#X connect 22 1 20 0;
#X connect 22 2 21 0;
#X connect 29 0 30 0;
#X connect 30 0 18 2;
#X connect 31 0 8 0;
#X connect 32 0 4 0;
#X connect 32 0 3 0;
#X connect 33 0 38 0;
#X connect 33 1 39 0;
#X connect 34 0 35 0;
#X connect 35 0 33 2;
#X connect 36 0 10 0;
#X connect 37 0 7 0;
