#N canvas 308 395 450 300 10;
#X obj 55 24 inlet;
#X obj 124 20 inlet;
#X obj 124 78 float \$1;
#X obj 55 193 outlet;
#X obj 55 162 clip 0 1;
#X obj 55 128 expr pow($f1 \, \\$f2);
#X obj 219 85 loadbang;
#X connect 0 0 5 0;
#X connect 1 0 2 0;
#X connect 2 0 5 1;
#X connect 4 0 3 0;
#X connect 5 0 4 0;
#X connect 6 0 2 0;
