#N canvas 244 311 700 479 10;
#X obj 89 40 inlet~;
#X obj 150 37 inlet~;
#X obj 89 145 outlet~;
#X obj 150 145 outlet~;
#N canvas 517 306 448 458 limit 0;
#X obj 30 19 inlet~;
#X obj 30 256 outlet~;
#X obj 30 197 *~;
#X obj 45 63 *~;
#X obj 45 106 max~ 1;
#X obj 45 138 fexpr~ if($x-$y>0 \, \\$x \, \\$y+($x-$y)*0.0001);
#X obj 45 168 rsqrt~;
#X obj 146 218 env~;
#X floatatom 146 246 5 0 0 0 - - - 0 0 1, f 5;
#X obj 146 275 > 99.99;
#X floatatom 146 305 5 0 0 0 - - - 0 0 1, f 5;
#X obj 146 334 sel 0 1;
#X obj 148 378 outlet;
#X connect 0 0 2 0;
#X connect 0 0 3 0;
#X connect 0 0 3 1;
#X connect 2 0 1 0;
#X connect 3 0 4 0;
#X connect 4 0 5 0;
#X connect 5 0 6 0;
#X connect 6 0 2 1;
#X connect 6 0 7 0;
#X connect 7 0 8 0;
#X connect 8 0 9 0;
#X connect 9 0 10 0;
#X connect 10 0 11 0;
#X connect 11 0 12 0;
#X restore 150 81 pd limit;
#N canvas 517 306 448 458 limit 0;
#X obj 30 19 inlet~;
#X obj 30 256 outlet~;
#X obj 30 197 *~;
#X obj 45 63 *~;
#X obj 45 106 max~ 1;
#X obj 45 138 fexpr~ if($x-$y>0 \, \\$x \, \\$y+($x-$y)*0.0001);
#X obj 45 168 rsqrt~;
#X obj 146 218 env~;
#X floatatom 146 246 5 0 0 0 - - - 0 0 1, f 5;
#X obj 146 275 > 99.99;
#X floatatom 146 305 5 0 0 0 - - - 0 0 1, f 5;
#X obj 146 334 sel 0 1;
#X obj 148 378 outlet;
#X connect 0 0 2 0;
#X connect 0 0 3 0;
#X connect 0 0 3 1;
#X connect 2 0 1 0;
#X connect 3 0 4 0;
#X connect 4 0 5 0;
#X connect 5 0 6 0;
#X connect 6 0 2 1;
#X connect 6 0 7 0;
#X connect 7 0 8 0;
#X connect 8 0 9 0;
#X connect 9 0 10 0;
#X connect 10 0 11 0;
#X connect 11 0 12 0;
#X restore 70 81 pd limit;
#X obj 295 103 bng 10 250 50 0 empty empty empty 17 7 0 10 #fcfcfc
#000000 #000000 1;
#X obj 219 145 outlet;
#X connect 0 0 5 0;
#X connect 1 0 4 0;
#X connect 4 0 3 0;
#X connect 4 1 6 0;
#X connect 4 1 7 0;
#X connect 5 0 2 0;
#X connect 5 1 6 0;
#X coords 0 -1 1 1 64 17 1 245 100;
