#N canvas 1 9 1680 967 10;
#N canvas 193 2 1185 950 engine 0;
#X floatatom 142 250 5 0 0 0 - - - 0;
#X obj 217 393 expr $f1 * (1+$f2);
#X obj 217 364 t b f;
#X obj 522 855 expr $f1 * (1+$f2);
#X obj 142 272 f2sig;
#X obj 217 422 f2sig;
#X obj 522 879 f2sig;
#X obj 142 315 +~;
#X obj 217 451 +~;
#X obj 522 903 +~;
#X obj 44 233 limiter;
#X obj 499 1161 limiter;
#X obj 464 980 *~;
#X obj 521 980 *~;
#X obj 43 26 inlet~;
#X obj 100 26 inlet~;
#X obj 455 1234 outlet~;
#X obj 512 1234 outlet~;
#X obj 465 1126 spigot~;
#X obj 522 1126 spigot~;
#X obj 670 1074 r \$0-limiter-r;
#X obj 142 228 r \$0-delay-r;
#X obj 656 881 r \$0-gain-r;
#X obj 628 89 r \$0-stereo-r;
#X obj 217 335 r \$0-diffusion-r;
#X obj 522 831 t b f;
#X obj 522 807 r \$0-diffusion-r;
#N canvas 329 326 450 300 delay 0;
#X obj 279 67 r \$0-a-pan;
#X obj 297 139 r \$0-damp-q-r;
#X obj 283 114 r \$0-damp-freq-r;
#X obj 280 90 r \$0-feedback-r;
#X obj 13 26 inlet~;
#X obj 69 26 inlet~;
#X obj 113 24 inlet~;
#X obj 13 255 outlet~;
#X obj 75 255 outlet~;
#X obj 40 185 delay_a 1, f 18;
#X connect 0 0 9 3;
#X connect 1 0 9 6;
#X connect 2 0 9 5;
#X connect 3 0 9 4;
#X connect 4 0 9 0;
#X connect 5 0 9 1;
#X connect 6 0 9 2;
#X connect 9 0 7 0;
#X connect 9 1 8 0;
#X restore 45 343 pd delay a;
#N canvas 607 323 450 300 delay 0;
#X obj 192 65 r \$0-b-pan;
#X obj 193 127 r \$0-damp-q-r;
#X obj 194 106 r \$0-damp-freq-r;
#X obj 192 85 r \$0-feedback-r;
#X obj 13 26 inlet~;
#X obj 69 26 inlet~;
#X obj 125 26 inlet~;
#X obj 13 249 outlet~;
#X obj 75 249 outlet~;
#X obj 40 179 delay_a, f 18;
#X connect 0 0 9 3;
#X connect 1 0 9 6;
#X connect 2 0 9 5;
#X connect 3 0 9 4;
#X connect 4 0 9 0;
#X connect 5 0 9 1;
#X connect 6 0 9 2;
#X connect 9 0 7 0;
#X connect 9 1 8 0;
#X restore 160 481 pd delay b;
#X obj 670 1096 int;
#X obj 586 183 s \$0-a-pan;
#X obj 678 183 s \$0-b-pan;
#X obj 637 1191 s \$0-limiter-active;
#X obj 586 112 expr -$f1;
#X obj 678 112 expr ($f1*0.6);
#X obj 263 882 mix, f 5;
#X obj 347 874 mix, f 5;
#X obj 365 664 r \$0-distortion-r;
#X obj 262 724 *~ 1;
#X obj 188 724 *~ 1;
#X obj 262 779 softsat 0.5;
#X obj 187 778 softsat 0.5;
#X obj 358 801 r \$0-distortion-r;
#X obj 307 825 /~ 1;
#X obj 227 825 /~ 1;
#X obj 366 703 easein 2;
#X obj 364 826 easeout 10;
#X obj 761 750 r \$0-feedback-r;
#X obj 731 858 t b f;
#X obj 734 783 expr if($f1 > 0.5 \, ($f1-0.5)*2 \, 0);
#X obj 655 909 *;
#X obj 731 835 expr 1-($f1* 1);
#X obj 554 948 f2sig;
#N canvas 437 123 1159 707 mod 0;
#X obj 31 290 f2sig;
#X obj 31 313 osc~ 1;
#X obj 31 620 *~;
#X obj 133 290 f2sig;
#X obj 133 313 osc~ 1;
#X obj 133 620 *~;
#X obj 242 620 *~;
#X obj 242 290 f2sig;
#X obj 242 313 osc~ 1;
#X floatatom 790 609 5 0 0 0 - - - 0;
#X obj 790 579 *;
#X obj 790 542 t b f;
#X obj 31 48 r \$0-mod-speed-r;
#X obj 276 15 r \$0-mod-offset-r;
#X obj 790 511 r \$0-mod-amp-r;
#X obj 200 117 expr 1+$f1;
#X obj 343 97 expr 1+$f1*2;
#X obj 133 270 * 1;
#X obj 242 270 * 1;
#X obj 276 57 * 8;
#X obj 276 36 easein 5;
#X obj 31 102 easein 5;
#X obj 31 648 s~ \$0-mod-a;
#X obj 132 648 s~ \$0-mod-b;
#X obj 241 648 s~ \$0-mod-c;
#X obj 695 510 r \$0-delay-r;
#X obj 790 634 f2sig;
#X obj 46 592 r~ \$0-modamp;
#X obj 790 654 s~ \$0-modamp;
#X obj 147 592 r~ \$0-modamp;
#X obj 257 592 r~ \$0-modamp;
#X obj 597 50 inlet~;
#X obj 422 257 env~;
#X obj 422 287 dbtorms;
#X obj 589 115 r \$0-mod-speed-r;
#X obj 493 287 * 1;
#X obj 200 140 t b f;
#X obj 343 120 t b f;
#X obj 537 287 * 1;
#X obj 57 456 r \$0-mod-type-r;
#X obj 160 456 r \$0-mod-type-r;
#X obj 270 456 r \$0-mod-type-r;
#X obj 589 145 easein 2;
#X obj 422 322 f2sig;
#X obj 466 322 f2sig;
#X obj 510 322 f2sig;
#X obj 589 175 expr (1-$f1)*500;
#X obj 31 125 * 8;
#X obj 421 348 *~ 10;
#X obj 466 348 *~ 10;
#X obj 510 348 *~ 10;
#N canvas 771 168 450 332 pitchtrack 0;
#X obj 72 277 outlet;
#X obj 72 49 inlet~;
#X obj 72 148 > 0;
#X obj 72 181 sel 0 1;
#X obj 72 214 float;
#X obj 72 115 t f f;
#X obj 72 243 - 64;
#X obj 72 82 sigmund~ -hop 2048 pitch;
#X connect 1 0 7 0;
#X connect 2 0 3 0;
#X connect 3 1 4 0;
#X connect 4 0 6 0;
#X connect 5 0 2 0;
#X connect 5 1 4 1;
#X connect 6 0 0 0;
#X connect 7 0 5 0;
#X restore 722 121 pd pitchtrack;
#X obj 689 337 * 1;
#X obj 761 337 * 1;
#X obj 602 363 f2sig;
#X obj 662 363 f2sig;
#X obj 734 363 f2sig;
#X obj 30 558 select~6, f 14;
#X obj 132 558 select~6, f 14;
#X obj 241 558 select~6, f 14;
#X obj 601 396 /~ 16;
#X obj 663 396 /~ 16;
#X obj 733 396 /~ 16;
#X obj 446 125 t b f;
#X obj 581 287 * 1;
#X obj 554 322 f2sig;
#X obj 554 348 *~ 10;
#X obj 446 102 expr 1+$f1*3;
#X obj 351 618 *~;
#X obj 366 590 r~ \$0-modamp;
#X obj 350 556 select~6, f 14;
#X obj 350 290 f2sig;
#X obj 350 313 osc~ 1;
#X obj 350 270 * 1;
#X obj 380 456 r \$0-mod-type-r;
#X obj 829 337 * 1;
#X obj 802 363 f2sig;
#X obj 801 396 /~ 16;
#X obj 350 646 s~ \$0-mod-d;
#X connect 0 0 1 0;
#X connect 1 0 57 0;
#X connect 2 0 22 0;
#X connect 3 0 4 0;
#X connect 4 0 58 0;
#X connect 5 0 23 0;
#X connect 6 0 24 0;
#X connect 7 0 8 0;
#X connect 8 0 59 0;
#X connect 9 0 26 0;
#X connect 10 0 9 0;
#X connect 11 0 10 0;
#X connect 11 1 10 1;
#X connect 12 0 21 0;
#X connect 13 0 20 0;
#X connect 14 0 11 0;
#X connect 15 0 36 0;
#X connect 16 0 37 0;
#X connect 17 0 3 0;
#X connect 18 0 7 0;
#X connect 19 0 16 0;
#X connect 19 0 15 0;
#X connect 19 0 67 0;
#X connect 20 0 19 0;
#X connect 21 0 47 0;
#X connect 25 0 10 0;
#X connect 26 0 28 0;
#X connect 27 0 2 1;
#X connect 29 0 5 1;
#X connect 30 0 6 1;
#X connect 31 0 32 0;
#X connect 31 0 51 0;
#X connect 32 0 33 0;
#X connect 33 0 43 0;
#X connect 33 0 44 0;
#X connect 33 0 45 0;
#X connect 33 0 65 0;
#X connect 34 0 42 0;
#X connect 35 0 44 1;
#X connect 36 0 17 0;
#X connect 36 0 35 0;
#X connect 36 0 52 0;
#X connect 36 1 17 1;
#X connect 36 1 35 1;
#X connect 36 1 52 1;
#X connect 37 0 18 0;
#X connect 37 0 38 0;
#X connect 37 0 53 0;
#X connect 37 1 18 1;
#X connect 37 1 38 1;
#X connect 37 1 53 1;
#X connect 38 0 45 1;
#X connect 39 0 57 6;
#X connect 40 0 58 6;
#X connect 41 0 59 6;
#X connect 42 0 46 0;
#X connect 43 0 48 0;
#X connect 44 0 49 0;
#X connect 45 0 50 0;
#X connect 46 0 35 0;
#X connect 46 0 43 1;
#X connect 46 0 38 0;
#X connect 46 0 53 0;
#X connect 46 0 54 1;
#X connect 46 0 52 0;
#X connect 46 0 64 0;
#X connect 46 0 75 0;
#X connect 47 0 0 0;
#X connect 47 0 17 0;
#X connect 47 0 18 0;
#X connect 47 0 73 0;
#X connect 48 0 57 1;
#X connect 49 0 58 1;
#X connect 50 0 59 1;
#X connect 51 0 56 0;
#X connect 51 0 54 0;
#X connect 51 0 55 0;
#X connect 51 0 76 0;
#X connect 52 0 55 1;
#X connect 53 0 56 1;
#X connect 54 0 60 0;
#X connect 55 0 61 0;
#X connect 56 0 62 0;
#X connect 57 0 2 0;
#X connect 58 0 5 0;
#X connect 59 0 6 0;
#X connect 60 0 57 2;
#X connect 61 0 58 2;
#X connect 62 0 59 2;
#X connect 63 0 64 0;
#X connect 63 0 73 0;
#X connect 63 0 75 0;
#X connect 63 1 64 1;
#X connect 63 1 73 1;
#X connect 63 1 75 1;
#X connect 64 0 65 1;
#X connect 65 0 66 0;
#X connect 66 0 70 1;
#X connect 67 0 63 0;
#X connect 68 0 78 0;
#X connect 69 0 68 1;
#X connect 70 0 68 0;
#X connect 71 0 72 0;
#X connect 72 0 70 0;
#X connect 73 0 71 0;
#X connect 74 0 70 6;
#X connect 75 0 76 1;
#X connect 76 0 77 0;
#X connect 77 0 70 2;
#X restore 59 112 pd mod;
#X obj 59 88 *~ 0.5;
#X obj 158 295 r~ \$0-mod-a;
#X obj 258 422 r~ \$0-mod-b;
#X obj 44 273 stereocomb 1 1;
#X obj 111 444 stereocomb 1 1;
#X obj 369 911 stereocomb 1 1;
#X obj 364 740 expr ($f1*30) + 1;
#X obj 568 1191 clip~ -1 1;
#X obj 499 1191 clip~ -1 1;
#X obj 179 578 stereocomb 1 1;
#N canvas 607 323 450 300 delay 0;
#X obj 193 127 r \$0-damp-q-r;
#X obj 194 106 r \$0-damp-freq-r;
#X obj 192 85 r \$0-feedback-r;
#X obj 13 26 inlet~;
#X obj 69 26 inlet~;
#X obj 125 26 inlet~;
#X obj 13 249 outlet~;
#X obj 75 249 outlet~;
#X obj 40 179 delay_a, f 18;
#X connect 0 0 8 6;
#X connect 1 0 8 5;
#X connect 2 0 8 4;
#X connect 3 0 8 0;
#X connect 4 0 8 1;
#X connect 5 0 8 2;
#X connect 8 0 6 0;
#X connect 8 1 7 0;
#X restore 231 615 pd delay c;
#N canvas 828 462 450 292 delay 0;
#X obj 40 160 delay_a, f 17;
#X obj 155 117 r \$0-damp-q-r;
#X obj 154 98 r \$0-damp-freq-r;
#X obj 154 76 r \$0-feedback-r;
#X obj 13 26 inlet~;
#X obj 69 26 inlet~;
#X obj 125 26 inlet~;
#X obj 13 230 outlet~;
#X obj 75 230 outlet~;
#X connect 0 0 7 0;
#X connect 0 1 8 0;
#X connect 1 0 0 6;
#X connect 2 0 0 5;
#X connect 3 0 0 4;
#X connect 4 0 0 0;
#X connect 5 0 0 1;
#X connect 6 0 0 2;
#X restore 465 941 pd delay d;
#X obj 565 879 r~ \$0-mod-d;
#X obj 289 527 expr $f1 * (1+$f2);
#X obj 289 498 t b f;
#X obj 289 556 f2sig;
#X obj 289 585 +~;
#X obj 289 469 r \$0-diffusion-r;
#X obj 330 556 r~ \$0-mod-c;
#X obj 230 667 *~ 0.1;
#X obj 287 668 *~ 0.1;
#X obj 474 1048 width, f 7;
#X obj 513 1024 r \$0-width-r;
#X obj 521 1086 highpass;
#X obj 461 1086 highpass;
#X msg 598 1057 0;
#X obj 598 1038 loadbang;
#X obj 528 1053 r \$0-hp-r;
#X obj 585 1131 s \$0-hp-display;
#X connect 0 0 1 0;
#X connect 0 0 4 0;
#X connect 1 0 5 0;
#X connect 1 0 67 0;
#X connect 2 0 1 0;
#X connect 2 1 1 1;
#X connect 3 0 6 0;
#X connect 4 0 7 0;
#X connect 5 0 8 0;
#X connect 6 0 9 0;
#X connect 7 0 27 2;
#X connect 8 0 28 2;
#X connect 9 0 65 2;
#X connect 10 0 57 0;
#X connect 10 1 57 1;
#X connect 11 0 62 0;
#X connect 11 1 61 0;
#X connect 11 2 32 0;
#X connect 12 0 75 0;
#X connect 13 0 75 1;
#X connect 14 0 54 0;
#X connect 14 0 10 0;
#X connect 15 0 54 0;
#X connect 15 0 10 1;
#X connect 18 0 11 0;
#X connect 18 1 16 0;
#X connect 19 0 11 1;
#X connect 19 1 17 0;
#X connect 20 0 29 0;
#X connect 21 0 0 0;
#X connect 22 0 50 0;
#X connect 23 0 33 0;
#X connect 23 0 34 0;
#X connect 24 0 2 0;
#X connect 25 0 3 0;
#X connect 25 1 3 1;
#X connect 26 0 25 0;
#X connect 27 0 58 0;
#X connect 27 1 58 1;
#X connect 28 0 63 0;
#X connect 28 1 63 1;
#X connect 29 0 19 1;
#X connect 29 0 18 1;
#X connect 33 0 30 0;
#X connect 34 0 31 0;
#X connect 35 0 59 0;
#X connect 36 0 59 1;
#X connect 37 0 45 0;
#X connect 38 0 40 0;
#X connect 39 0 41 0;
#X connect 40 0 43 0;
#X connect 41 0 44 0;
#X connect 42 0 46 0;
#X connect 43 0 36 1;
#X connect 44 0 35 1;
#X connect 45 0 60 0;
#X connect 46 0 36 2;
#X connect 46 0 35 2;
#X connect 47 0 49 0;
#X connect 48 0 50 0;
#X connect 48 1 50 1;
#X connect 49 0 51 0;
#X connect 50 0 52 0;
#X connect 51 0 48 0;
#X connect 52 0 13 1;
#X connect 52 0 12 1;
#X connect 54 0 53 0;
#X connect 55 0 7 1;
#X connect 56 0 8 1;
#X connect 57 0 27 0;
#X connect 57 1 27 1;
#X connect 58 0 28 0;
#X connect 58 1 28 1;
#X connect 59 0 65 0;
#X connect 59 1 65 1;
#X connect 60 0 38 1;
#X connect 60 0 39 1;
#X connect 60 0 43 1;
#X connect 60 0 44 1;
#X connect 61 0 17 0;
#X connect 62 0 16 0;
#X connect 63 0 64 0;
#X connect 63 1 64 1;
#X connect 64 0 73 0;
#X connect 64 1 74 0;
#X connect 65 0 12 0;
#X connect 65 1 13 0;
#X connect 66 0 9 1;
#X connect 67 0 69 0;
#X connect 67 0 3 0;
#X connect 68 0 67 0;
#X connect 68 1 67 1;
#X connect 69 0 70 0;
#X connect 70 0 64 2;
#X connect 71 0 68 0;
#X connect 72 0 70 1;
#X connect 73 0 39 0;
#X connect 73 0 35 0;
#X connect 74 0 38 0;
#X connect 74 0 36 0;
#X connect 75 0 78 0;
#X connect 75 1 77 0;
#X connect 76 0 75 2;
#X connect 77 0 19 0;
#X connect 77 1 82 0;
#X connect 78 0 18 0;
#X connect 79 0 78 2;
#X connect 79 0 77 2;
#X connect 80 0 79 0;
#X connect 81 0 77 1;
#X connect 81 0 78 1;
#X restore 95 274 pd engine;
#X obj 31 47 adc~ 1 2;
#X obj 28 475 dac~ 1 2;
#X obj 336 134 hsl 128 15 0.8 50 0 0 \$0-delay-s \$0-delay-r empty
-2 -8 0 10 #fcfcfc #000000 #000000 0 1;
#X obj 529 134 hsl 128 15 0.1 2 0 0 \$0-diffusion-s \$0-diffusion-r
empty -2 -8 0 10 #fcfcfc #000000 #000000 0 1;
#X obj 336 194 hsl 128 15 0.5 0.95 0 0 \$0-feedback-s \$0-feedback-r
empty -2 -8 0 10 #fcfcfc #000000 #000000 0 1;
#X obj 336 254 hsl 128 15 0 1 0 0 \$0-damp-freq-s \$0-damp-freq-r empty
-2 -8 0 10 #fcfcfc #000000 #000000 0 1;
#X obj 529 254 hsl 128 15 0 0.5 0 0 \$0-damp-q-s \$0-damp-q-r empty
-2 -8 0 10 #fcfcfc #000000 #000000 0 1;
#X text 335 115 Delay;
#X text 335 175 Feedback;
#X text 528 235 Q;
#X obj 469 134 nbx 2 15 -1e+37 1e+37 0 0 empty \$0-delay-r empty 0
-8 0 10 #fcfcfc #000000 #000000 0 256;
#X obj 469 194 nbx 2 15 -1e+37 1e+37 0 0 empty \$0-feedback-r empty
0 -8 0 10 #fcfcfc #000000 #000000 0 256;
#X obj 662 134 nbx 2 15 -1e+37 1e+37 0 0 empty \$0-diffusion-r empty
0 -8 0 10 #fcfcfc #000000 #000000 0 256;
#X obj 469 254 nbx 2 15 -1e+37 1e+37 0 0 empty \$0-damp-freq-r empty
0 -8 0 10 #fcfcfc #000000 #000000 0 256;
#X obj 662 254 nbx 2 15 -1e+37 1e+37 0 0 empty \$0-damp-q-r empty 0
-8 0 10 #fcfcfc #000000 #000000 0 256;
#X obj 336 374 hsl 128 15 0.1 1 0 0 \$0-mod-speed-s \$0-mod-speed-r
empty -2 -8 0 10 #fcfcfc #000000 #000000 0 1;
#X obj 529 374 hsl 128 15 0 1 0 0 \$0-mod-offset-s \$0-mod-offset-r
empty -2 -8 0 10 #fcfcfc #000000 #000000 0 1;
#X obj 469 374 nbx 2 15 -1e+37 1e+37 0 0 empty \$0-mod-speed-r empty
0 -8 0 10 #fcfcfc #000000 #000000 0 256;
#X text 335 235 Damp freq;
#X text 335 355 Mod speed;
#X obj 662 374 nbx 2 15 -1e+37 1e+37 0 0 empty \$0-mod-offset-r empty
0 -8 0 10 #fcfcfc #000000 #000000 0 256;
#X obj 336 414 hsl 128 15 -1 1 0 0 \$0-mod-amp-s \$0-mod-amp-r empty
-2 -8 0 10 #fcfcfc #000000 #000000 0 1;
#X obj 469 414 nbx 2 15 -1e+37 1e+37 0 0 empty \$0-mod-amp-r empty
0 -8 0 10 #fcfcfc #000000 #000000 0 256;
#X text 335 395 Mod amp;
#X obj 336 524 hsl 128 15 0 4 0 0 \$0-gain-s \$0-gain-r empty -2 -8
0 10 #fcfcfc #000000 #000000 0 1;
#X obj 469 524 nbx 2 15 -1e+37 1e+37 0 0 empty \$0-gain-r empty 0 -8
0 10 #fcfcfc #000000 #000000 0 256;
#X text 335 505 Gain;
#X obj 336 564 tgl 15 0 \$0-limiter-s \$0-limiter-r empty 17 7 0 10
#fcfcfc #000000 #000000 0 1;
#X text 360 563 Limiter;
#X obj 529 474 hsl 128 15 -1 1 0 0 \$0-width-s \$0-width-r empty -2
-8 0 10 #fcfcfc #000000 #000000 0 1;
#X obj 662 474 nbx 2 15 -1e+37 1e+37 0 0 empty \$0-width-r empty 0
-8 0 10 #fcfcfc #000000 #000000 0 256;
#X text 528 455 Width;
#X obj 529 524 hsl 128 15 0 1 0 0 \$0-mix-s \$0-mix-r empty -2 -8 0
10 #fcfcfc #000000 #000000 0 1;
#X obj 662 524 nbx 2 15 -1e+37 1e+37 0 0 empty \$0-mix-r empty 0 -8
0 10 #fcfcfc #000000 #000000 0 256;
#X text 528 505 Mix;
#X obj 469 564 bng 15 250 50 0 empty \$0-limiter-active empty 17 7
0 10 #fcfcfc #000000 #000000;
#X obj 1154 122 param.get 1;
#X obj 1465 85 param.change;
#X obj 1154 144 send \$0-delay-r;
#X obj 1269 122 param.set 1 \$0-delay-s;
#X obj 1154 172 param.get 2;
#X obj 1154 194 send \$0-diffusion-r;
#X obj 1154 222 param.get 3;
#X obj 1154 244 send \$0-feedback-r;
#X obj 1154 272 param.get 4;
#X obj 1154 294 send \$0-stereo-r;
#X obj 1154 322 param.get 5;
#X obj 1269 172 param.set 2 \$0-diffusion-s;
#X obj 1269 222 param.set 3 \$0-feedback-s;
#X obj 1269 272 param.set 4 \$0-stereo-s;
#X obj 1154 372 param.get 6;
#X obj 1269 322 param.set 5 \$0-damp-freq-s;
#X obj 1269 422 param.set 7 \$0-mod-speed-s;
#X obj 1154 422 param.get 7;
#X obj 1154 444 send \$0-mod-speed-r;
#X obj 1154 472 param.get 8;
#X obj 1154 494 send \$0-mod-offset-r;
#X obj 1269 472 param.set 8 \$0-mod-offset-s;
#X obj 1154 542 param.get 9;
#X obj 1269 564 param.set 9 \$0-mod-amp-s;
#X obj 1154 564 send \$0-mod-amp-r;
#X obj 1154 612 param.get 10;
#X obj 1154 634 send \$0-gain-r;
#X obj 1269 634 param.set 10 \$0-gain-s;
#X obj 1154 704 send \$0-width-r;
#X obj 1154 682 param.get 11;
#X obj 1269 702 param.set 11 \$0-width-s;
#X obj 1154 754 send \$0-limiter-r;
#X obj 1154 732 param.get 12;
#X obj 1269 732 param.set 12 \$0-limiter-s;
#X obj 1154 782 param.get 13;
#X obj 1154 804 send \$0-mix-r;
#X obj 1269 782 param.set 13 \$0-mix-s;
#X obj 1154 344 send \$0-damp-freq-r;
#X obj 662 194 nbx 2 15 -1e+37 1e+37 0 0 empty \$0-stereo-r empty 0
-8 0 10 #fcfcfc #000000 #000000 0 256;
#X obj 529 194 hsl 128 15 -1 1 0 0 \$0-stereo-s \$0-stereo-r empty
-2 -8 0 10 #fcfcfc #000000 #000000 0 1;
#X obj 1154 394 send \$0-damp-q-r;
#X obj 1269 372 param.set 6 \$0-damp-q-s;
#X obj 336 314 hsl 128 15 0 1 0 0 \$0-distortion-s \$0-distortion-r
empty -2 -8 0 10 #fcfcfc #000000 #000000 0 1;
#X obj 469 314 nbx 2 15 -1e+37 1e+37 0 0 empty \$0-distortion-r empty
0 -8 0 10 #fcfcfc #000000 #000000 0 256;
#X text 335 295 Distortion;
#X obj 1154 832 param.get 14;
#X obj 1269 832 param.set 14 \$0-distortion-s;
#X obj 1154 854 send \$0-distortion-r;
#X obj 27 427 mix, f 7;
#X obj 80 427 mix, f 7;
#X obj 142 366 r \$0-mix-r;
#X text 505 134 x;
#X text 528 175 Position;
#X text 528 115 Offset;
#X obj 526 414 hradio 15 1 0 3 \$0-mod-type-s \$0-mod-type-r empty
0 -8 0 10 #fcfcfc #000000 #000000 0;
#X text 528 395 Mod type;
#X obj 1154 882 param.get 15;
#X obj 1154 904 send \$0-mod-type-r;
#X obj 1269 882 param.set 15 \$0-mod-type-s;
#X symbolatom 579 414 10 0 0 0 - \$0-mod-type-symbol - 0;
#X obj 763 791 s \$0-mod-type-symbol;
#X obj 763 691 r \$0-mod-type-r;
#X obj 763 721 sel 0 1;
#X msg 763 752 symbol lfo;
#X msg 843 752 symbol envelope;
#X obj 503 528 bng 9 100 50 0 \$0-reset-gain empty empty 17 7 0 10
#fcfcfc #000000 #000000;
#X obj 695 478 bng 9 100 50 0 \$0-reset-width empty empty 17 7 0 10
#fcfcfc #000000 #000000;
#X obj 503 418 bng 9 100 50 0 \$0-reset-mod-amp empty empty 17 7 0
10 #fcfcfc #000000 #000000;
#X obj 1269 592 r \$0-reset-gain;
#X obj 1269 662 r \$0-reset-width;
#X msg 1269 682 0;
#X msg 1269 613 1;
#X obj 1269 524 r \$0-reset-mod-amp;
#X msg 1269 544 0;
#X obj 29 528 loadbang;
#X obj 29 586 print;
#X obj 336 153 hsl 128 8 0.8 50 0 0 empty \$0-delay-display empty -2
-8 0 10 #00ff04 #0f4710 #000000 0 1;
#X floatatom 149 667 5 0 0 0 - - - 0;
#X obj 149 698 f2sig;
#X obj 148 765 +~;
#X obj 149 635 r \$0-delay-r;
#X obj 164 745 r~ \$0-mod-a;
#X obj 147 826 snapshot~;
#X obj 147 886 s \$0-delay-display;
#X obj 271 695 loadbang;
#X obj 147 856 change;
#X obj 271 723 metro 13;
#X msg 953 752 symbol pitch;
#X text 528 355 Mod speed offset;
#X obj 336 474 hsl 128 15 0 1 0 0 \$0-hp-s \$0-hp-r empty -2 -8 0 10
#fcfcfc #000000 #000000 0 1;
#X obj 469 474 nbx 4 15 -1e+37 1e+37 0 0 empty \$0-hp-display empty
0 -8 0 10 #fcfcfc #000000 #000000 0 256;
#X text 335 455 HP filter;
#X obj 1154 932 param.get 16;
#X obj 1269 932 param.set 16 \$0-hp-s;
#X obj 1154 954 send \$0-hp-r;
#X text 683 580 v0.7;
#X msg 29 557 METAL BOX v0.7;
#X connect 0 0 85 1;
#X connect 0 1 86 1;
#X connect 1 0 85 0;
#X connect 1 0 0 0;
#X connect 1 1 86 0;
#X connect 1 1 0 1;
#X connect 37 0 39 0;
#X connect 41 0 42 0;
#X connect 43 0 44 0;
#X connect 45 0 46 0;
#X connect 47 0 74 0;
#X connect 51 0 77 0;
#X connect 54 0 55 0;
#X connect 56 0 57 0;
#X connect 59 0 61 0;
#X connect 62 0 63 0;
#X connect 66 0 65 0;
#X connect 69 0 68 0;
#X connect 71 0 72 0;
#X connect 82 0 84 0;
#X connect 85 0 2 0;
#X connect 86 0 2 1;
#X connect 87 0 86 2;
#X connect 87 0 85 2;
#X connect 93 0 94 0;
#X connect 98 0 99 0;
#X connect 99 0 100 0;
#X connect 99 1 101 0;
#X connect 99 2 124 0;
#X connect 100 0 97 0;
#X connect 101 0 97 0;
#X connect 105 0 108 0;
#X connect 106 0 107 0;
#X connect 107 0 67 0;
#X connect 108 0 64 0;
#X connect 109 0 110 0;
#X connect 110 0 60 0;
#X connect 111 0 133 0;
#X connect 114 0 115 0;
#X connect 115 0 116 0;
#X connect 116 0 119 0;
#X connect 117 0 114 0;
#X connect 118 0 116 1;
#X connect 119 0 122 0;
#X connect 121 0 123 0;
#X connect 122 0 120 0;
#X connect 123 0 119 0;
#X connect 124 0 97 0;
#X connect 129 0 131 0;
#X connect 133 0 112 0;
#X coords 0 -1 1 1 410 510 1 309 93;
