#N canvas 607 323 450 300 10;
#X obj 43 35 inlet~;
#X obj 43 212 outlet~;
#X obj 130 35 inlet~;
#X obj 43 131 *~;
#X obj 187 35 inlet;
#X obj 130 131 *~;
#X obj 58 97 expr 1-$f1;
#X obj 177 65 clip 0 1;
#X connect 0 0 3 0;
#X connect 2 0 5 0;
#X connect 3 0 1 0;
#X connect 4 0 7 0;
#X connect 5 0 1 0;
#X connect 6 0 3 1;
#X connect 7 0 5 1;
#X connect 7 0 6 0;
