#N canvas -8 -8 1680 962 10;
#X obj 37 23 inlet~;
#X obj 37 463 outlet~;
#X obj 117 23 inlet~;
#X obj 37 312 *~;
#X obj 520 26 inlet;
#X obj 117 312 *~;
#X obj 197 23 inlet~;
#X obj 197 312 *~;
#X obj 277 23 inlet~;
#X obj 277 312 *~;
#X obj 357 23 inlet~;
#X obj 357 312 *~;
#X obj 427 23 inlet~;
#X obj 427 312 *~;
#X obj 506 115 == 0;
#X obj 546 115 == 1;
#X obj 586 115 == 2;
#X obj 626 115 == 3;
#X obj 666 115 == 4;
#X obj 706 115 == 5;
#X obj 675 13 loadbang;
#X msg 682 53 1;
#X connect 0 0 3 0;
#X connect 2 0 5 0;
#X connect 3 0 1 0;
#X connect 4 0 14 0;
#X connect 4 0 15 0;
#X connect 4 0 16 0;
#X connect 4 0 17 0;
#X connect 4 0 18 0;
#X connect 4 0 19 0;
#X connect 5 0 1 0;
#X connect 6 0 7 0;
#X connect 7 0 1 0;
#X connect 8 0 9 0;
#X connect 9 0 1 0;
#X connect 10 0 11 0;
#X connect 11 0 1 0;
#X connect 12 0 13 0;
#X connect 13 0 1 0;
#X connect 14 0 3 1;
#X connect 15 0 5 1;
#X connect 16 0 7 1;
#X connect 17 0 9 1;
#X connect 18 0 11 1;
#X connect 19 0 13 1;
#X connect 20 0 21 0;
#X connect 21 0 14 0;
#X connect 21 0 15 0;
#X connect 21 0 16 0;
#X connect 21 0 17 0;
#X connect 21 0 18 0;
#X connect 21 0 19 0;
