#N canvas 248 307 557 490 10;
#X obj 54 34 inlet~;
#X obj 79 164 expr~ if($v1 == 1 \, -$v2 \, \\$v2);
#X obj 54 306 expr~ if($v1 == 1 \, -$v2 \, \\$v2);
#X obj 54 340 outlet~;
#X obj 344 12 inlet;
#X obj 341 138 expr (1 - \\$f1)*997 + 3;
#X floatatom 365 201 5 0 0 0 - - - 0 0 1, f 5;
#X obj 271 180 f2sig;
#X obj 125 238 expr~ \\$v1 - 1/$v2 * pow($v1 \, \\$v2);
#X obj 54 93 expr~ if($v1<0 \, 1 \, 0);
#X obj 338 92 easeout 20;
#X obj 349 61 / 2;
#X obj 217 89 clip~ -1 1;
#X obj 215 3 loadbang;
#X obj 248 35 float \$1;
#X connect 0 0 9 0;
#X connect 0 0 12 0;
#X connect 1 0 8 0;
#X connect 2 0 3 0;
#X connect 4 0 11 0;
#X connect 5 0 7 0;
#X connect 5 0 6 0;
#X connect 7 0 8 1;
#X connect 8 0 2 1;
#X connect 9 0 1 0;
#X connect 9 0 2 0;
#X connect 10 0 5 0;
#X connect 11 0 10 0;
#X connect 12 0 1 1;
#X connect 13 0 14 0;
#X connect 14 0 11 0;
