#N canvas 570 343 450 300 10;
#X obj 46 43 inlet~;
#X obj 115 43 inlet;
#X obj 46 205 outlet~;
#X obj 115 205 outlet~;
#X obj 115 78 expr 1-$f1;
#X obj 46 160 *~;
#X obj 115 160 *~;
#X connect 0 0 5 0;
#X connect 0 0 6 0;
#X connect 1 0 4 0;
#X connect 1 0 5 1;
#X connect 4 0 6 1;
#X connect 5 0 2 0;
#X connect 6 0 3 0;
