#N canvas 864 318 547 472 10;
#X obj 21 37 inlet~;
#X obj 127 134 f2sig;
#X obj 21 399 outlet~;
#X obj 83 398 outlet~;
#X obj 98 300 -~;
#X obj 83 36 inlet~;
#X obj 83 328 +~;
#X obj 127 69 inlet;
#X obj 187 89 inlet;
#X obj 21 362 /~;
#X obj 83 362 /~;
#X obj 187 300 expr if($f1 > 1 \, \\$f1 \, 1);
#N canvas 224 303 270 420 l 0;
#X obj 40 49 inlet~;
#X obj 40 297 +~;
#X obj 55 262 *~;
#X obj 40 323 outlet~;
#X obj 70 239 inlet~;
#X obj 55 186 inlet~;
#X obj 55 214 vd~ \$0-delay-l;
#X obj 47 92 delwrite~ \$0-delay-l;
#X connect 0 0 1 0;
#X connect 0 0 7 0;
#X connect 1 0 3 0;
#X connect 2 0 1 1;
#X connect 4 0 2 1;
#X connect 5 0 6 0;
#X connect 6 0 2 0;
#X restore 21 254 pd l;
#N canvas 47 221 270 420 r 0;
#X obj 40 49 inlet~;
#X obj 40 297 +~;
#X obj 55 262 *~;
#X obj 40 323 outlet~;
#X obj 55 213 vd~ \$0-delay-r;
#X obj 55 186 inlet~;
#X obj 70 239 inlet~;
#X obj 47 93 delwrite~ \$0-delay-r;
#X connect 0 0 1 0;
#X connect 0 0 7 0;
#X connect 1 0 3 0;
#X connect 2 0 1 1;
#X connect 4 0 2 0;
#X connect 5 0 4 0;
#X connect 6 0 2 1;
#X restore 113 254 pd r;
#X text 21 15 left;
#X text 86 15 right;
#X text 126 47 delay;
#X text 225 90 depth;
#X obj 127 102 float \$1;
#X obj 187 134 float \$2;
#X obj 210 12 loadbang;
#X connect 0 0 12 0;
#X connect 1 0 12 1;
#X connect 1 0 13 1;
#X connect 4 0 6 1;
#X connect 5 0 4 0;
#X connect 5 0 6 0;
#X connect 5 0 13 0;
#X connect 6 0 10 0;
#X connect 7 0 18 0;
#X connect 8 0 19 0;
#X connect 9 0 2 0;
#X connect 10 0 3 0;
#X connect 11 0 9 1;
#X connect 11 0 10 1;
#X connect 12 0 9 0;
#X connect 13 0 4 1;
#X connect 18 0 1 0;
#X connect 19 0 11 0;
#X connect 19 0 13 2;
#X connect 19 0 12 2;
#X connect 20 0 18 0;
#X connect 20 0 19 0;
