#N canvas 350 516 450 300 10;
#X obj 63 44 inlet~;
#X obj 133 44 inlet~;
#X obj 63 236 outlet~;
#X obj 133 236 outlet~;
#X obj 63 198 *~;
#X obj 133 198 *~;
#X obj 191 44 inlet;
#X obj 191 119 clip 0 1;
#X obj 281 119 clip -1 0;
#X obj 191 149 expr 1 - \\$f1;
#X obj 281 149 expr (1 + \\$f1);
#X floatatom 281 219 5 0 0 0 - - - 0 0 1, f 5;
#X floatatom 191 219 5 0 0 0 - - - 0 0 1, f 5;
#X text 235 45 pan (-1 to 1);
#X connect 0 0 4 0;
#X connect 1 0 5 0;
#X connect 4 0 2 0;
#X connect 5 0 3 0;
#X connect 6 0 8 0;
#X connect 6 0 7 0;
#X connect 7 0 9 0;
#X connect 8 0 10 0;
#X connect 9 0 12 0;
#X connect 9 0 4 1;
#X connect 10 0 11 0;
#X connect 10 0 5 1;
