#N canvas 598 318 450 300 10;
#X obj 46 41 inlet;
#X obj 174 36 inlet;
#X obj 166 69 float \$1;
#X obj 71 208 line~;
#X obj 65 265 outlet~;
#X obj 86 135 pack;
#X msg 87 168 \$1 \$2;
#X obj 104 22 loadbang;
#X obj 70 92 t f b;
#X msg 139 178 stop;
#X obj 143 101 max 25;
#X connect 0 0 8 0;
#X connect 1 0 2 0;
#X connect 2 0 10 0;
#X connect 3 0 4 0;
#X connect 5 0 6 0;
#X connect 6 0 3 0;
#X connect 7 0 2 0;
#X connect 8 0 5 0;
#X connect 8 1 9 0;
#X connect 9 0 3 0;
#X connect 10 0 5 1;
