#N canvas 837 192 450 422 10;
#X obj 55 26 inlet~;
#X obj 106 26 inlet~;
#X obj 55 346 outlet~;
#X obj 112 346 outlet~;
#X obj 104 114 stereocomb 1 1;
#X obj 158 67 r delay-r;
#X obj 185 90 r depth-r;
#X obj 262 256 r mix-r;
#X obj 55 310 stereomix;
#X obj 104 254 stereocomb 1 1;
#X obj 158 137 r delay-r;
#X obj 185 190 r depth-r;
#X obj 185 222 * 1.5;
#X obj 158 168 * 2;
#X connect 0 0 4 0;
#X connect 0 0 8 0;
#X connect 1 0 4 1;
#X connect 1 0 8 1;
#X connect 4 0 9 1;
#X connect 4 1 9 0;
#X connect 5 0 4 2;
#X connect 6 0 4 3;
#X connect 7 0 8 4;
#X connect 8 0 2 0;
#X connect 8 1 3 0;
#X connect 9 0 8 2;
#X connect 9 1 8 3;
#X connect 10 0 13 0;
#X connect 11 0 12 0;
#X connect 12 0 9 3;
#X connect 13 0 9 2;
