#N canvas 675 416 398 344 10;
#X obj 136 18 inlet~;
#X obj 103 295 outlet~;
#X obj 189 18 inlet~;
#X obj 174 295 outlet~;
#X obj 35 108 expr~ ($v1 + \\$v2)/2;
#X obj 189 107 expr~ ($v1 - \\$v2)/2;
#X text 79 84 mid;
#X text 230 84 side;
#X obj 189 210 *~;
#X obj 103 258 +~;
#X obj 174 259 -~;
#X obj 204 136 inlet, f 6;
#X obj 204 161 + 1;
#X obj 204 186 f2sig;
#X text 255 136 separation \, -1 to 1;
#X connect 0 0 4 0;
#X connect 0 0 5 0;
#X connect 2 0 4 1;
#X connect 2 0 5 1;
#X connect 4 0 9 0;
#X connect 4 0 10 0;
#X connect 5 0 8 0;
#X connect 8 0 9 1;
#X connect 8 0 10 1;
#X connect 9 0 1 0;
#X connect 10 0 3 0;
#X connect 11 0 12 0;
#X connect 12 0 13 0;
#X connect 13 0 8 1;
